<svg width="32" height="32" viewBox="0 0 32 32" fill="none" xmlns="http://www.w3.org/2000/svg">
<circle cx="16" cy="16" r="15.5" transform="rotate(-180 16 16)" stroke="#EAECF0"/>
<path fill-rule="evenodd" clip-rule="evenodd" d="M8 20.9497L8.61625 21.5611C9.2162 22.1463 10.1936 22.1458 10.7942 21.5611L16 16.5041L21.2165 21.5715C21.817 22.1562 22.7838 22.136 23.3838 21.5508L24 20.9497L16 13.1241L16 13.1362L16 13.1241L8 20.9497" fill="#72777D"/>
<path fill-rule="evenodd" clip-rule="evenodd" d="M8 14.9497L8.61625 15.5611C9.2162 16.1463 10.1936 16.1458 10.7942 15.5611L16 10.5041L21.2165 15.5715C21.817 16.1562 22.7838 16.136 23.3838 15.5508L24 14.9497L16 7.12413L16 7.13619L16 7.12413L8 14.9497" fill="#72777D"/>
</svg>
